<?xml version="1.0" standalone="no"?>
<!DOCTYPE svg PUBLIC "-//W3C//DTD SVG 20010904//EN"
 "http://www.w3.org/TR/2001/REC-SVG-20010904/DTD/svg10.dtd">
<svg version="1.0" xmlns="http://www.w3.org/2000/svg"
 width="200.000000pt" height="102.000000pt" viewBox="0 0 195.000000 210.000000"
 preserveAspectRatio="xMidYMid meet">
<metadata>
Created by potrace 1.15, written by Peter Selinger 2001-2017
</metadata>
<g transform="translate(0.000000,203.000000) scale(0.100000,-0.100000)"
fill="#000000" stroke="none">
<path d="M207 1793 c-4 -3 -7 -47 -7 -97 l0 -91 258 -258 c141 -141 262 -257
267 -257 12 0 705 691 705 703 0 9 -1214 10 -1223 0z"/>
<path d="M1285 1540 l-260 -260 358 -358 357 -357 0 618 0 617 -98 0 -97 0
-260 -260z"/>
<path d="M200 1213 c0 -153 3 -430 7 -616 l6 -337 91 0 91 0 263 263 262 262
-353 353 c-193 193 -355 352 -360 352 -4 0 -7 -125 -7 -277z"/>
<path d="M862 627 c-193 -193 -352 -355 -352 -360 0 -4 277 -7 615 -7 l615 0
0 103 0 102 -258 258 c-141 141 -259 257 -262 257 -3 0 -164 -159 -358 -353z"/>
</g>
</svg>
