<?xml version="1.0" standalone="no"?>
<!DOCTYPE svg PUBLIC "-//W3C//DTD SVG 20010904//EN"
 "http://www.w3.org/TR/2001/REC-SVG-20010904/DTD/svg10.dtd">
<svg version="1.0" xmlns="http://www.w3.org/2000/svg"
 width="200.000000pt" height="102.000000pt" viewBox="0 0 960.000000 959.000000"
 preserveAspectRatio="xMidYMid meet">
<metadata>
Created by potrace 1.15, written by Peter Selinger 2001-2017
</metadata>
<g transform="translate(0.000000,959.000000) scale(0.100000,-0.100000)"
fill="#000000" stroke="none">
<path d="M6052 9510 c-42 -39 -66 -107 -175 -496 -70 -248 -103 -421 -93 -491
10 -76 44 -104 79 -65 9 10 34 85 56 167 44 164 74 261 82 269 3 3 95 -24 204
-59 110 -36 214 -65 232 -65 37 0 53 21 53 69 0 40 -33 65 -117 86 -95 23
-333 106 -333 114 0 29 73 231 84 231 7 0 76 -20 154 -45 78 -24 171 -50 206
-56 56 -11 68 -10 90 4 42 28 50 53 24 76 -20 20 -188 78 -363 126 l-80 22 -5
50 c-3 28 -11 58 -19 67 -18 22 -53 20 -79 -4z"/>
<path d="M4870 9151 c-98 -22 -173 -82 -214 -170 -17 -38 -21 -65 -21 -151 1
-94 3 -110 27 -156 15 -28 44 -66 64 -84 66 -58 93 -65 259 -65 83 0 162 3
177 8 32 8 52 40 43 66 -9 29 -51 41 -185 50 -171 13 -205 28 -241 106 -23 49
-25 101 -4 109 15 5 88 -2 264 -25 90 -12 94 -12 136 10 34 18 48 34 64 71 34
78 25 124 -34 172 -53 44 -249 78 -335 59z m204 -131 c38 -19 42 -34 17 -59
-17 -17 -34 -21 -87 -21 -121 0 -173 24 -146 67 22 34 157 42 216 13z"/>
<path d="M4035 9031 c-206 -104 -290 -356 -168 -502 56 -66 159 -94 319 -86
60 3 134 12 164 20 36 10 57 12 61 5 14 -22 19 -169 8 -244 -12 -92 -58 -237
-95 -300 -37 -63 -107 -121 -199 -165 -104 -50 -179 -67 -232 -51 -54 16 -104
51 -128 89 -11 18 -24 32 -29 33 -4 0 -24 13 -42 30 -41 36 -60 31 -76 -22
-25 -84 23 -202 107 -260 105 -72 293 -62 460 25 157 82 290 218 343 353 59
148 70 352 33 598 -37 242 -65 319 -150 402 -68 67 -140 98 -236 102 -73 3
-86 1 -140 -27z m223 -135 c31 -16 74 -61 91 -94 11 -21 51 -192 51 -217 0
-16 -248 -59 -301 -52 -61 8 -120 53 -143 109 -17 41 -18 52 -6 92 35 125 206
215 308 162z"/>
<path d="M3410 8901 c-77 -24 -177 -106 -195 -160 -6 -21 -25 -30 -25 -12 0
18 -52 71 -70 71 -29 0 -50 -28 -50 -67 0 -37 139 -470 171 -534 24 -48 44
-55 75 -24 31 31 31 54 -7 205 -46 186 -33 287 48 361 44 42 117 55 151 27 22
-19 57 -95 92 -203 52 -159 97 -225 154 -225 36 0 29 113 -16 244 -80 233
-205 354 -328 317z"/>
<path d="M6729 8757 c-91 -34 -162 -105 -220 -220 -39 -76 -45 -130 -25 -200
31 -106 116 -166 288 -202 124 -27 182 -15 244 50 113 117 160 286 108 388
-68 131 -277 228 -395 184z m185 -160 c69 -46 96 -94 96 -172 0 -88 -45 -150
-129 -180 -61 -21 -108 -19 -166 9 -73 34 -115 85 -115 142 0 70 72 196 132
231 41 24 120 11 182 -30z"/>
<path d="M2729 8602 c-92 -60 -150 -125 -195 -219 -103 -214 -72 -392 80 -470
65 -33 136 -29 196 11 53 35 114 130 144 223 l23 74 57 -66 c49 -55 63 -65 90
-65 41 0 56 16 56 59 0 42 -38 114 -130 243 -62 88 -220 258 -238 258 -5 0
-43 -22 -83 -48z m95 -194 c65 -166 45 -288 -62 -370 -49 -38 -92 -37 -126 2
-57 68 -57 159 -1 271 35 68 123 169 147 169 8 0 26 -32 42 -72z"/>
<path d="M7337 8469 c-48 -40 -184 -244 -249 -376 -56 -112 -56 -125 4 -138
38 -9 63 13 125 114 104 169 149 211 228 211 66 0 104 -30 178 -140 23 -34 50
-68 59 -74 24 -15 47 9 59 63 13 59 -12 112 -92 193 -55 56 -71 67 -114 75
-27 6 -69 8 -92 6 l-42 -5 10 37 c20 71 -12 86 -74 34z"/>
<path d="M1515 8230 c-20 -33 45 -146 187 -322 46 -57 143 -184 217 -281 74
-98 147 -189 164 -203 26 -22 32 -23 51 -11 14 10 22 27 24 54 3 34 -6 52 -59
134 -94 143 -119 201 -119 279 1 132 79 221 163 186 33 -13 112 -98 179 -191
73 -101 156 -158 198 -135 26 14 25 24 -9 95 -36 76 -74 127 -162 220 -84 88
-172 138 -247 139 -96 2 -191 -88 -231 -219 l-18 -56 -74 88 c-172 204 -240
262 -264 223z"/>
<path d="M7857 8024 c-89 -28 -165 -131 -202 -272 -40 -158 4 -247 179 -363
98 -65 171 -75 196 -28 14 26 4 39 -75 92 -75 51 -152 123 -171 159 -36 69 -6
188 61 247 72 63 133 59 241 -15 36 -25 72 -43 79 -40 23 9 47 54 40 75 -9 30
-93 108 -139 130 -58 28 -149 34 -209 15z"/>
<path d="M1077 7780 c-76 -83 -122 -230 -115 -367 4 -72 10 -93 46 -166 77
-156 232 -306 354 -342 190 -56 390 51 554 297 46 68 94 174 94 205 0 29 -30
54 -51 42 -11 -5 -71 -77 -134 -159 -134 -172 -205 -241 -271 -264 -118 -40
-193 -9 -342 143 -80 81 -115 156 -120 262 -5 102 8 150 68 253 56 96 52 136
-16 136 -24 0 -40 -9 -67 -40z"/>
<path d="M4847 7801 c-12 -8 -33 -25 -47 -37 -113 -97 -310 -263 -332 -279
-23 -18 -526 -444 -554 -470 -6 -5 -24 -21 -40 -34 -16 -14 -58 -50 -94 -81
-103 -91 -119 -95 -169 -51 -18 16 -47 40 -63 53 -17 13 -36 28 -42 34 -18 17
-336 278 -366 299 -15 11 -45 36 -68 55 -22 19 -55 47 -74 62 -18 15 -82 68
-143 117 -60 50 -114 91 -120 91 -10 0 -60 -39 -164 -128 -30 -26 -82 -69
-115 -96 -34 -27 -83 -68 -111 -91 -74 -63 -216 -184 -245 -208 -14 -12 -45
-38 -70 -57 -25 -19 -47 -37 -50 -40 -9 -10 -204 -175 -284 -240 -43 -36 -88
-74 -100 -85 -11 -11 -33 -30 -48 -41 -25 -20 -113 -94 -164 -139 -13 -11 -42
-36 -65 -55 -40 -33 -82 -69 -173 -147 -24 -21 -35 -37 -30 -45 20 -32 170
-178 184 -178 8 0 61 40 117 88 158 136 195 163 217 160 l21 -3 5 -1058 c3
-582 2 -1065 -1 -1075 -13 -37 -123 -92 -324 -163 -253 -89 -349 -128 -512
-205 -111 -52 -140 -73 -86 -60 25 6 23 4 -12 -20 -60 -40 -105 -85 -126 -126
-41 -80 -19 -122 127 -240 164 -133 168 -158 36 -236 -150 -89 -166 -157 -63
-256 89 -86 309 -260 475 -377 218 -152 385 -263 617 -409 319 -201 415 -259
474 -286 264 -122 474 -119 725 10 96 50 204 76 309 76 124 0 216 -23 631
-160 80 -26 171 -53 202 -60 101 -20 276 -27 379 -14 116 15 155 26 384 104
252 87 348 116 665 204 469 131 519 139 805 140 241 0 355 -14 541 -68 180
-52 417 -138 529 -192 99 -48 101 -48 205 -48 97 -1 110 1 170 30 68 32 81 41
418 294 494 371 841 664 918 777 41 61 30 93 -74 207 -137 151 -271 247 -572
414 -107 59 -193 102 -332 166 -32 14 -83 38 -114 52 -198 91 -393 156 -789
264 -323 88 -522 150 -645 202 -240 102 -237 96 -35 73 256 -29 463 -54 526
-65 35 -6 136 -22 224 -36 87 -14 167 -30 176 -35 10 -5 28 -9 42 -9 13 0 80
-12 148 -26 68 -14 154 -31 190 -39 110 -22 284 -65 479 -116 301 -80 333 -89
370 -103 19 -8 62 -21 95 -30 33 -10 69 -21 80 -26 39 -18 135 -47 135 -41 0
9 -202 104 -345 164 -113 47 -385 145 -522 188 -36 11 -69 29 -78 42 -13 19
-15 146 -15 1104 0 750 3 1084 11 1088 13 8 74 -31 154 -99 33 -28 62 -53 65
-56 23 -26 144 -120 152 -120 6 0 52 41 102 91 l90 92 -35 31 c-30 26 -128
112 -189 166 -10 8 -41 35 -71 60 -49 42 -112 96 -184 159 -17 14 -53 44 -80
66 -28 22 -129 107 -226 190 -96 82 -195 166 -218 185 -46 37 -74 61 -161 135
-95 82 -103 89 -195 165 -49 41 -99 83 -110 93 -69 63 -155 127 -170 127 -14
0 -180 -124 -215 -160 -3 -3 -50 -41 -105 -85 -55 -44 -140 -113 -190 -155
-49 -41 -94 -78 -100 -82 -5 -4 -46 -38 -90 -76 -44 -37 -101 -83 -127 -101
-27 -19 -48 -38 -48 -42 0 -6 -53 -29 -66 -29 -3 0 -126 100 -134 110 -6 6
-127 109 -191 161 -113 93 -509 426 -593 499 -276 239 -270 235 -319 201z
m149 -417 c48 -42 190 -163 384 -328 127 -107 156 -132 166 -141 6 -5 30 -26
54 -45 24 -19 56 -45 70 -57 14 -12 69 -59 124 -104 61 -51 103 -94 112 -115
12 -28 14 -207 14 -1073 l0 -1040 -21 -12 c-16 -8 -46 -8 -118 1 -53 7 -229
16 -391 21 -162 5 -368 12 -456 15 -121 5 -202 2 -325 -11 -117 -12 -196 -15
-277 -10 -78 4 -163 1 -280 -10 -123 -12 -174 -14 -194 -6 l-28 11 0 1031 0
1032 25 42 c13 23 61 74 107 112 46 38 157 132 248 209 91 76 176 148 189 159
14 11 38 32 54 48 17 15 33 27 36 27 3 0 22 15 41 33 19 18 64 57 99 86 35 29
70 58 76 64 7 7 30 26 51 42 21 17 58 47 82 68 l44 38 28 -18 c15 -10 54 -41
86 -69z m-1976 -408 c14 -11 45 -37 70 -56 39 -29 92 -73 211 -173 14 -12 46
-38 72 -57 48 -36 62 -57 52 -81 -5 -12 -109 -101 -283 -244 -20 -16 -49 -41
-64 -55 -16 -14 -80 -68 -143 -120 -62 -52 -114 -99 -114 -104 -1 -6 42 -52
95 -103 l95 -93 91 78 c182 155 245 208 288 242 24 19 58 47 76 63 38 32 50
34 64 8 7 -13 10 -311 10 -896 0 -945 1 -933 -52 -955 -13 -5 -120 -21 -238
-35 -118 -14 -240 -30 -270 -35 -30 -6 -120 -21 -200 -34 -196 -33 -304 -54
-373 -71 -32 -8 -71 -17 -85 -20 -31 -6 -175 -36 -282 -60 -70 -15 -75 -15
-87 2 -11 14 -13 239 -11 1173 3 1332 -10 1184 118 1292 41 35 82 68 90 75 27
21 354 296 431 363 108 93 124 106 144 117 17 10 93 -47 295 -221z m4053 192
c34 -23 67 -47 72 -53 6 -7 96 -83 200 -171 191 -159 300 -251 387 -328 85
-74 79 35 76 -1281 l-3 -1170 -45 3 c-25 2 -68 9 -95 17 -28 9 -86 22 -130 31
-95 19 -95 18 -120 27 -11 3 -81 18 -155 32 -74 15 -157 31 -184 36 -102 21
-533 82 -726 103 -95 10 -124 20 -137 46 -10 19 -13 230 -13 941 0 504 3 918
6 921 7 7 72 -19 89 -35 7 -7 34 -30 61 -52 64 -53 193 -164 273 -234 35 -31
76 -64 92 -74 l28 -19 97 96 97 95 -69 58 c-38 31 -71 60 -74 63 -3 3 -61 53
-130 110 -69 58 -132 112 -140 120 -8 9 -35 31 -60 50 -25 19 -52 41 -60 50
-8 8 -32 28 -52 43 -45 33 -47 50 -10 74 25 17 52 39 106 88 12 11 38 31 56
45 18 14 56 44 84 68 149 124 411 341 414 342 2 0 31 -19 65 -42z m-1483
-2872 c67 -7 541 -39 569 -39 39 1 9 -17 -55 -33 -67 -18 -172 -68 -245 -119
-193 -133 -445 -124 -916 34 -284 95 -453 136 -606 147 -54 4 -100 11 -103 16
-6 9 1268 3 1356 -6z m-1480 -19 c-200 -41 -271 -110 -315 -304 -14 -61 -25
-126 -25 -144 0 -42 29 -146 50 -181 71 -119 282 -246 483 -292 37 -9 95 -22
130 -30 34 -8 118 -22 187 -31 69 -9 159 -22 200 -30 41 -8 103 -17 138 -21
65 -7 84 -21 75 -55 -5 -16 -128 -101 -203 -139 -28 -15 -92 -64 -126 -97 -44
-44 -91 -19 -63 33 22 42 60 74 142 121 42 25 77 48 77 51 0 4 -24 8 -53 10
-74 4 -151 23 -323 81 -285 95 -435 81 -681 -66 -43 -25 -138 -77 -211 -114
l-133 -68 48 -14 c60 -18 143 -57 143 -67 0 -22 -92 -19 -256 10 -200 35 -240
50 -310 117 -84 80 -119 105 -339 239 -215 131 -386 290 -515 480 -70 103
-131 172 -210 239 l-34 29 129 22 c72 12 153 27 180 33 28 6 95 18 150 27 55
8 109 17 120 19 26 5 356 50 510 70 180 23 422 46 680 65 83 6 186 14 230 18
44 4 114 8 155 9 l75 1 -105 -21z m-2640 -375 c0 -5 26 -39 58 -78 72 -85 137
-181 249 -367 47 -78 110 -178 140 -222 41 -59 53 -83 45 -95 -16 -26 -48 -22
-123 15 -81 41 -103 56 -203 135 -39 30 -82 64 -97 75 -15 11 -80 63 -146 116
-128 104 -176 136 -268 182 -83 41 -108 48 -210 56 l-90 7 75 23 c41 12 100
31 130 40 84 28 405 117 433 120 4 1 7 -3 7 -7z m5985 -70 c96 -29 225 -88
320 -145 153 -91 464 -327 432 -327 -17 0 -434 238 -667 380 -25 15 -76 45
-115 66 -38 20 -79 44 -90 51 -19 13 -18 14 10 7 17 -4 66 -18 110 -32z
m-2882 -910 c110 -38 93 -46 -101 -50 -193 -5 -413 21 -362 42 97 39 360 44
463 8z"/>
<path d="M4388 6038 c-19 -31 -19 -431 0 -465 12 -22 18 -23 150 -23 94 0 142
4 150 12 15 15 17 455 2 478 -7 12 -38 16 -149 18 -137 4 -140 4 -153 -20z"/>
<path d="M4979 6053 c-10 -2 -20 -14 -23 -26 -10 -39 -7 -437 4 -458 10 -17
23 -19 150 -19 76 0 145 3 154 6 14 5 16 36 16 245 0 225 -1 239 -19 249 -19
10 -248 12 -282 3z"/>
<path d="M4387 5333 c-11 -22 -14 -77 -13 -243 1 -118 5 -221 10 -228 10 -17
287 -17 304 0 16 16 17 450 2 479 -10 17 -23 19 -150 19 l-139 0 -14 -27z"/>
<path d="M4970 5350 c-12 -8 -16 -47 -18 -232 -2 -122 -1 -233 3 -245 5 -23 7
-23 153 -23 102 0 152 4 160 12 9 9 12 76 12 239 0 194 -2 230 -16 243 -12 13
-41 16 -147 16 -73 0 -139 -5 -147 -10z"/>
<path d="M2445 5719 c-21 -5 -43 -15 -47 -22 -14 -21 -10 -293 5 -305 20 -17
147 -25 194 -13 50 14 49 9 45 193 l-3 137 -27 5 c-63 12 -130 14 -167 5z"/>
<path d="M2930 5721 c-30 -3 -61 -10 -67 -14 -18 -11 -18 -298 -1 -315 18 -18
212 -16 228 2 19 24 10 291 -11 311 -19 20 -74 25 -149 16z"/>
<path d="M2409 5223 c-21 -25 -20 -290 1 -303 16 -11 189 -14 214 -4 14 5 16
28 16 153 0 101 -4 151 -12 159 -8 8 -47 12 -109 12 -78 0 -99 -3 -110 -17z"/>
<path d="M2860 5221 c-5 -11 -10 -78 -10 -150 0 -164 -2 -161 129 -161 62 0
101 4 109 12 15 15 17 271 2 299 -10 17 -22 19 -115 19 -93 0 -105 -2 -115
-19z"/>
<path d="M6715 5721 c-66 -11 -65 -8 -65 -166 0 -79 3 -150 6 -159 5 -13 25
-16 113 -16 70 0 111 4 119 12 26 26 11 326 -16 329 -56 5 -125 5 -157 0z"/>
<path d="M7101 5706 c-15 -18 -14 -295 1 -313 14 -18 229 -18 246 -1 15 15 17
281 2 309 -10 17 -22 19 -124 19 -85 0 -116 -3 -125 -14z"/>
<path d="M6662 5228 c-8 -8 -12 -57 -12 -155 0 -170 -6 -163 134 -163 84 0 97
2 106 19 5 11 10 77 10 146 0 69 -5 135 -10 146 -10 17 -22 19 -113 19 -67 0
-107 -4 -115 -12z"/>
<path d="M7100 5219 c-18 -33 -9 -287 10 -299 20 -13 210 -13 230 0 12 7 16
37 18 137 2 74 -1 140 -7 156 l-11 27 -114 0 c-106 0 -116 -2 -126 -21z"/>
<path d="M8312 7509 c-69 -27 -168 -118 -198 -184 -30 -63 -32 -161 -5 -220
23 -51 169 -235 205 -259 36 -23 74 -14 82 20 8 33 -4 60 -75 158 -32 45 -66
95 -75 113 -34 67 -9 169 50 208 28 18 28 18 54 -14 15 -17 55 -78 89 -136
101 -170 142 -196 244 -158 107 41 122 119 51 263 -48 97 -138 190 -208 213
-66 22 -149 21 -214 -4z m249 -166 c54 -49 85 -110 80 -160 0 -7 -14 -13 -30
-13 -36 0 -80 41 -121 114 -32 55 -37 81 -17 89 28 12 49 5 88 -30z"/>
<path d="M5732 1265 c-15 -11 -21 -23 -17 -38 2 -12 19 -85 36 -162 17 -77 36
-160 40 -185 5 -25 14 -65 19 -90 6 -25 17 -85 25 -135 7 -49 20 -114 28 -143
14 -52 14 -54 -8 -62 -22 -9 -23 -12 -42 -142 -5 -38 -5 -38 30 -38 56 0 65
-8 72 -58 4 -26 14 -66 22 -89 l15 -42 99 -3 c109 -3 108 -4 89 62 -6 19 -15
62 -19 95 -5 33 -18 96 -29 140 -25 102 -47 211 -62 300 -7 39 -16 79 -22 90
-5 11 -15 56 -23 100 -8 44 -23 130 -34 190 -11 61 -24 129 -27 153 -4 23 -11
45 -16 48 -5 3 -35 7 -66 8 -31 1 -64 6 -72 9 -8 4 -25 0 -38 -8z"/>
<path d="M1180 1245 c-28 -16 -38 -21 -97 -44 -24 -9 -43 -21 -43 -27 0 -6 -7
-17 -15 -24 -21 -17 -56 -100 -48 -113 3 -5 1 -7 -5 -3 -19 11 -24 -88 -20
-429 3 -373 3 -372 81 -447 53 -52 118 -88 158 -88 l29 0 0 75 c0 76 -16 129
-42 137 -16 6 -22 697 -6 739 5 15 20 32 34 39 23 13 24 18 24 107 0 100 -3
105 -50 78z"/>
<path d="M1320 1160 l0 -101 35 -30 c33 -30 35 -34 35 -98 0 -37 2 -70 5 -73
3 -3 41 10 83 28 l77 34 -1 47 c-1 67 -19 123 -57 180 -36 53 -116 113 -153
113 -24 0 -24 -1 -24 -100z"/>
<path d="M2486 1251 c-19 -7 -19 -19 -15 -297 2 -159 4 -361 4 -449 0 -88 2
-222 3 -297 l2 -138 90 0 c85 0 90 1 95 23 4 13 4 277 2 586 -4 459 -7 565
-18 572 -17 11 -137 11 -163 0z"/>
<path d="M2803 1248 c-28 -14 -35 -32 -23 -64 6 -14 10 -40 10 -58 0 -25 7
-39 29 -55 55 -43 76 -151 50 -256 -8 -34 -18 -46 -40 -56 -41 -16 -47 -33
-41 -117 4 -73 4 -73 40 -88 20 -8 40 -20 44 -27 4 -7 8 -112 8 -235 l0 -223
98 3 97 3 3 210 c3 195 -7 314 -26 315 -4 1 -25 16 -47 35 l-40 34 37 38 c46
48 76 106 84 164 10 73 -32 289 -56 289 -4 0 -10 8 -13 19 -5 22 -97 68 -152
75 -22 3 -50 0 -62 -6z"/>
<path d="M3236 1244 c-8 -21 -8 -1088 0 -1137 6 -36 8 -37 48 -37 22 0 65 3
95 7 l54 6 -9 481 c-5 265 -7 517 -6 562 2 44 -2 92 -7 107 -10 26 -13 27 -90
27 -63 0 -80 -3 -85 -16z"/>
<path d="M3557 1254 c-13 -13 -8 -174 6 -174 6 0 21 -7 32 -16 16 -12 21 -32
26 -102 8 -98 -2 -136 -45 -169 -24 -20 -26 -26 -26 -108 l0 -87 33 5 c125 18
192 70 222 176 11 38 8 235 -5 282 -27 100 -105 176 -201 194 -19 3 -38 3 -42
-1z"/>
<path d="M4728 1249 c-15 -6 -25 -16 -23 -22 7 -22 14 -416 15 -789 l0 -368
90 0 c116 0 115 -2 104 179 -4 75 -7 139 -6 144 3 10 1 489 -3 691 -2 121 -6
160 -16 167 -19 12 -127 10 -161 -2z"/>
<path d="M5042 1244 c-21 -14 -23 -21 -16 -58 4 -22 7 -51 6 -64 -1 -15 12
-36 37 -60 58 -56 73 -128 47 -237 -8 -38 -17 -53 -37 -62 -46 -22 -50 -34
-43 -120 l6 -78 38 -16 c34 -15 38 -20 44 -68 4 -29 6 -116 6 -194 -1 -78 -1
-159 0 -179 l0 -38 88 1 c48 1 92 5 98 11 17 12 19 400 3 462 -9 37 -20 53
-55 78 -24 17 -44 39 -44 47 0 9 17 32 36 51 71 68 86 142 63 306 -13 92 -37
144 -81 177 -65 48 -159 68 -196 41z"/>
<path d="M6590 1250 c-157 -3 -285 -7 -285 -8 0 -43 7 -153 11 -170 5 -23 8
-24 94 -21 49 2 92 0 96 -4 4 -3 8 -149 10 -324 4 -373 11 -607 19 -632 5 -16
16 -18 89 -16 46 1 89 6 96 10 10 6 11 107 5 491 l-7 484 100 0 100 0 6 48 c7
57 -14 147 -35 147 -8 1 -142 -2 -299 -5z"/>
<path d="M7115 1251 l-30 -6 1 -405 c1 -223 2 -485 3 -582 l1 -177 53 -6 c28
-3 72 -2 95 2 l44 8 -2 580 c0 318 -3 581 -5 584 -7 7 -127 8 -160 2z"/>
<path d="M1880 1227 c-75 -36 -118 -75 -134 -120 -56 -152 -53 -657 4 -849 32
-109 105 -178 189 -178 l41 0 0 86 0 87 -36 31 -37 32 -1 353 c-1 332 0 353
18 366 10 8 15 19 11 25 -4 6 -1 9 7 8 17 -4 24 132 8 162 -13 25 -15 25 -70
-3z"/>
<path d="M4122 1227 c-61 -32 -109 -73 -126 -105 -62 -120 -61 -652 1 -877 13
-45 27 -70 59 -103 48 -46 72 -59 128 -63 l38 -4 0 80 c0 113 1 109 -31 128
-37 22 -38 37 -47 421 l-6 288 32 39 c21 27 33 54 37 86 6 54 -12 133 -30 133
-7 0 -32 -10 -55 -23z"/>
<path d="M7594 1224 c-63 -33 -121 -89 -133 -128 -32 -103 -43 -457 -22 -656
7 -58 21 -140 33 -183 18 -69 25 -82 70 -122 31 -28 63 -47 86 -51 20 -4 45
-8 55 -10 15 -3 17 7 17 91 0 91 -1 95 -26 112 -14 9 -30 27 -35 40 -4 12 -11
168 -15 346 -7 342 -6 351 39 387 37 30 26 200 -13 200 -4 0 -29 -12 -56 -26z"/>
<path d="M8258 1242 l-68 -3 0 -69 c0 -60 5 -77 36 -137 77 -145 191 -370 204
-403 8 -19 17 -37 20 -40 6 -5 49 -91 158 -321 28 -58 54 -117 57 -131 8 -31
42 -51 81 -46 l29 3 3 114 3 114 -52 106 c-45 92 -74 154 -159 336 -10 22 -30
67 -43 100 -24 58 -75 169 -140 307 -18 37 -39 68 -47 70 -8 2 -45 2 -82 0z"/>
<path d="M8629 1243 l-46 -4 -7 -46 c-13 -95 -7 -161 18 -210 86 -168 148
-308 148 -331 0 -25 12 -41 31 -42 4 0 5 75 2 168 -3 92 -7 230 -9 307 -1 78
-6 146 -10 153 -7 12 -30 12 -127 5z"/>
<path d="M2059 1224 c-4 -129 7 -194 33 -194 4 0 15 -16 23 -36 13 -30 15 -90
14 -350 l-2 -314 -28 -27 c-25 -25 -28 -35 -29 -93 0 -71 15 -140 31 -140 25
0 109 52 141 88 26 29 39 55 46 93 6 30 16 80 22 112 15 73 16 469 2 522 -6
22 -16 76 -23 120 -13 85 -27 115 -68 153 -34 31 -99 69 -133 77 -23 6 -28 4
-29 -11z"/>
<path d="M4306 1224 c-3 -9 -6 -48 -6 -88 0 -61 3 -76 21 -92 48 -43 49 -53
49 -397 l-1 -324 -28 -28 c-28 -25 -29 -31 -26 -99 2 -69 19 -126 37 -126 45
0 163 101 174 148 3 15 10 40 15 56 5 17 14 108 21 203 12 178 0 440 -22 499
-6 14 -10 41 -10 60 0 57 -56 130 -130 171 -53 30 -87 36 -94 17z"/>
<path d="M7787 1233 c-4 -3 -7 -42 -7 -85 0 -74 2 -80 35 -124 l35 -46 -1
-323 0 -324 -30 -32 c-25 -26 -29 -39 -29 -86 0 -77 18 -143 39 -143 24 0 110
57 143 94 24 27 35 57 54 146 23 111 26 470 4 580 -5 25 -9 52 -8 60 0 8 -5
42 -12 74 -18 90 -56 143 -130 181 -57 29 -85 37 -93 28z"/>
<path d="M5646 868 c-5 -12 -43 -194 -53 -248 -24 -129 -69 -349 -84 -409 -11
-41 -19 -86 -19 -101 0 -25 4 -28 48 -34 26 -3 70 -1 99 5 59 14 55 3 73 164
6 55 16 123 22 151 8 37 7 74 -1 135 -7 46 -20 142 -30 214 -14 106 -20 131
-34 133 -9 2 -19 -2 -21 -10z"/>
<path d="M8187 820 c-3 -11 -3 -176 0 -367 4 -284 8 -351 20 -363 10 -11 35
-15 100 -13 47 1 91 7 96 12 12 12 18 288 6 311 -4 8 -31 65 -59 125 -29 61
-62 130 -75 155 -13 25 -33 71 -45 103 -23 60 -34 70 -43 37z"/>
<path d="M1399 478 c-7 -12 -9 -43 -6 -72 5 -50 -12 -116 -30 -116 -4 0 -17
-7 -27 -15 -16 -12 -20 -31 -23 -105 l-4 -90 33 0 c47 1 108 31 145 73 40 45
73 149 73 228 0 58 0 59 -37 75 -101 43 -112 45 -124 22z"/>
</g>
</svg>
