<?xml version="1.0" standalone="no"?>
<!DOCTYPE svg PUBLIC "-//W3C//DTD SVG 20010904//EN"
 "http://www.w3.org/TR/2001/REC-SVG-20010904/DTD/svg10.dtd">
<svg version="1.0" xmlns="http://www.w3.org/2000/svg"
 width="200.000000pt" height="102.000000pt" viewBox="0 0 200.000000 102.000000"
 preserveAspectRatio="xMidYMid meet">
<metadata>
Created by potrace 1.15, written by Peter Selinger 2001-2017
</metadata>
<g transform="translate(0.000000,102.000000) scale(0.100000,-0.100000)"
fill="#000000" stroke="none">
<path d="M410 1000 c0 -13 9 -22 25 -26 l25 -6 0 -154 c0 -233 18 -282 115
-315 57 -19 229 -17 278 4 33 14 37 20 37 51 0 22 -5 36 -12 36 -7 0 -2 7 10
16 18 12 22 25 22 65 0 27 -4 49 -10 49 -5 0 -10 5 -10 10 0 6 7 10 16 10 14
0 16 9 12 50 -3 28 -1 50 4 50 5 0 6 5 3 10 -3 6 -1 10 4 10 6 0 11 21 11 50
0 51 16 69 24 28 11 -54 18 -96 23 -145 3 -29 8 -53 12 -53 4 0 6 -25 3 -55
-3 -37 0 -60 9 -71 7 -9 12 -35 10 -65 l-2 -49 75 0 c69 0 76 2 76 20 0 15 -7
20 -25 20 -25 0 -25 0 -25 96 0 53 4 93 9 90 5 -3 40 -55 77 -116 l69 -110
112 0 c74 0 113 4 113 11 0 6 7 3 16 -5 19 -19 57 -4 52 21 -6 29 -35 39 -56
20 -26 -23 -55 -21 -79 6 -11 12 -55 78 -98 147 -43 69 -84 134 -92 146 -12
19 -8 25 40 77 39 42 60 57 80 57 20 0 27 5 27 20 0 18 -7 20 -80 20 -72 0
-80 -2 -80 -19 0 -11 5 -21 11 -23 6 -2 -19 -40 -56 -83 -37 -44 -68 -81 -69
-82 0 -1 -1 33 -1 75 0 74 1 77 25 82 16 3 26 13 28 28 l3 22 -225 0 c-217 0
-226 -1 -226 -19 0 -13 8 -21 23 -23 22 -3 22 -5 25 -183 1 -99 0 -190 -3
-202 -13 -52 -67 -70 -101 -32 -17 19 -19 41 -22 215 l-4 193 26 7 c17 4 26
13 26 25 0 18 -9 19 -140 19 -133 0 -140 -1 -140 -20z"/>
<path d="M730 263 c0 -10 -4 -14 -8 -8 -12 16 -92 15 -92 -1 0 -8 6 -14 14
-14 14 0 26 -62 26 -129 l-1 -36 -30 35 c-17 19 -53 62 -81 94 -40 48 -56 59
-84 62 -38 3 -49 -20 -14 -29 18 -5 20 -14 20 -106 0 -83 -3 -101 -15 -101 -8
0 -15 -7 -15 -15 0 -11 12 -15 50 -15 51 0 67 13 30 25 -18 6 -20 15 -20 87 0
45 2 79 4 77 2 -2 38 -44 81 -94 43 -50 83 -91 89 -93 8 -2 10 24 8 84 -4 95
3 154 18 154 6 0 10 -7 10 -15 0 -8 4 -15 9 -15 5 0 14 7 21 15 7 8 25 15 41
15 l29 0 0 -104 c0 -96 -2 -105 -20 -111 -39 -12 -19 -25 40 -25 64 0 71 6 40
33 -17 15 -20 29 -20 112 l0 95 36 0 c27 0 37 -5 41 -20 7 -26 23 -26 30 0 3
11 12 20 19 20 11 0 14 -21 14 -95 0 -88 2 -98 25 -120 19 -19 35 -25 70 -25
26 0 55 5 67 11 31 17 48 71 48 154 0 60 3 75 15 75 8 0 15 6 15 13 0 9 -16
13 -50 14 -34 0 -50 -3 -50 -12 0 -7 9 -15 20 -18 18 -5 20 -13 20 -79 0 -101
-13 -123 -70 -123 -57 0 -70 22 -70 128 0 62 3 77 15 77 8 0 15 6 15 14 0 11
-28 13 -154 9 -104 -3 -156 -1 -161 6 -10 17 -25 13 -25 -6z"/>
<path d="M0 253 c0 -7 7 -13 15 -13 22 0 22 -205 0 -214 -32 -12 -13 -26 35
-26 38 0 50 4 50 15 0 8 -7 15 -15 15 -11 0 -15 12 -15 45 0 25 3 45 8 45 4 0
26 -23 50 -50 24 -28 38 -50 33 -50 -6 0 -11 -5 -11 -10 0 -7 50 -10 142 -8
l143 3 9 27 c13 36 -2 49 -21 21 -12 -18 -25 -23 -59 -23 l-44 0 0 40 c0 22
-1 43 -2 48 -7 18 42 11 61 -9 l21 -23 0 47 c0 46 -12 62 -24 32 -3 -8 -18
-15 -33 -15 -26 0 -28 2 -28 45 l0 45 36 0 c27 0 41 -6 52 -22 19 -29 31 -18
23 19 l-7 28 -135 1 c-123 0 -135 -1 -131 -17 3 -11 -12 -33 -39 -60 l-44 -43
0 47 c0 35 4 47 15 47 8 0 15 6 15 13 0 9 -15 13 -50 13 -35 0 -50 -4 -50 -13z
m270 -118 c0 -104 0 -105 -24 -105 -16 0 -40 18 -75 56 -28 30 -51 59 -51 64
0 4 20 26 45 49 32 29 53 41 75 41 l30 0 0 -105z"/>
<path d="M1301 253 c-99 -52 -105 -183 -10 -235 26 -15 49 -18 96 -16 34 2 65
6 68 9 2 3 8 21 12 40 l6 34 -38 -34 c-32 -28 -44 -32 -72 -28 -43 7 -62 23
-80 66 -19 44 -9 102 22 131 40 38 135 26 135 -16 0 -8 7 -14 15 -14 11 0 13
8 8 33 -3 17 -8 34 -10 36 -2 3 -29 6 -61 8 -41 3 -66 -1 -91 -14z"/>
<path d="M1470 253 c0 -7 7 -13 15 -13 12 0 15 -18 15 -104 0 -83 -3 -105 -15
-110 -32 -12 -13 -26 34 -26 52 0 79 17 42 27 -17 4 -21 13 -21 49 0 24 4 44
8 44 5 0 28 -22 51 -50 23 -27 37 -50 32 -50 -6 0 -11 -4 -11 -10 0 -5 23 -10
50 -10 38 0 50 4 50 15 0 8 -6 15 -14 15 -14 0 -116 105 -116 120 0 16 90 90
110 90 15 0 29 -18 55 -70 40 -80 46 -135 15 -143 -43 -11 -19 -27 40 -27 59
0 83 16 40 27 -34 9 -27 75 17 150 20 34 43 63 50 63 7 0 13 6 13 13 0 8 -14
12 -40 12 -24 0 -40 -4 -40 -11 0 -7 4 -14 10 -16 5 -1 -3 -25 -19 -51 l-28
-48 -21 50 c-11 28 -17 51 -11 51 5 0 9 6 9 13 0 9 -23 12 -86 12 -75 0 -85
-2 -81 -16 3 -11 -12 -34 -39 -60 l-44 -43 0 47 c0 35 4 47 15 47 8 0 15 6 15
13 0 9 -15 13 -50 13 -35 0 -50 -4 -50 -13z"/>
</g>
</svg>
